# xmcd
#
# Track frame offsets:
#	150
#	13047
#	25392
#	38365
#	48850
#	62002
#	76580
#	91225
#	106855
#	119710
#	131212
#	143942
#	155750
#	169130
#	181800
#
# Disc length: 2576 seconds
#
# Revision: 2
# Processed by: cddbd v1.5.2PL0 Copyright (c) Steve Scherf et al.
# Submitted via: audiograbber 1.83.01
#
DISCID=be0a0e0f
DTITLE=Various Artist - Living The Blues: Blues Classics 1945-1949 CD 1
DYEAR=1998
DGENRE=Blues
TTITLE0=Amos Milburn - Chicken-Shack Boogie
TTITLE1=Louis Jordan and His Tympany Five  - Choo Choo Ch'Boogie
TTITLE2=Dinah Washington - Baby Get Lost
TTITLE3=Roy Brown - Rainy Weather Blues
TTITLE4=Arthur "Big Boy" Crudup - That´s All Right
TTITLE5=Big Joe Turner - My Gal´s A Jockey
TTITLE6=Johnny Moore's Three Blazers - Drifting Blues
TTITLE7=Roosevelt Sykes and His Piano - I Wonder
TTITLE8=Big Jay McNeeley('s) Blue Jays - Deacon's Hop
TTITLE9=Jimmy Liggins - Careful Love
TTITLE10=Roy Milton and His Solid Senders - True Blues
TTITLE11=Wynonie Harrison - Grandma Plays The Numbers
TTITLE12=Ivory Joe Hunter - Waiting In Vain
TTITLE13=Clarence 'Gatemouth' Brown - My Time Is Expensive
TTITLE14=Albert Ammons and His Rhythm Kings - Swanee River Boogie
EXTD=
EXTT0=
EXTT1=
EXTT2=
EXTT3=
EXTT4=
EXTT5=
EXTT6=
EXTT7=
EXTT8=
EXTT9=
EXTT10=
EXTT11=
EXTT12=
EXTT13=
EXTT14=
PLAYORDER=
